<?xml version="1.0" encoding="UTF-8"?>
<svg width="214pt" version="1.1" xmlns="http://www.w3.org/2000/svg" height="38pt" viewBox="0 0 214 38" xmlns:xlink="http://www.w3.org/1999/xlink">
 <defs>
  <clipPath id="Clip0">
   <path d="M0 0 L0 37.5586 L213.438 37.5586 L213.438 0 L0 0 Z" transform="translate(0, 0.441406)"/>
  </clipPath>
 </defs>
 <g id="Background">
  <g id="Group1" clip-path="url(#Clip0)">
   <path style="fill:#747570; fill-rule:nonzero;stroke:none;" d="M15.4512 10.6289 L15.4512 17.6113 L21.2588 24.0137 L21.2588 10.6289 C21.2588 4.76757 16.4932 0 10.6299 0 C4.76855 0 0 4.76757 0 10.6289 L0 27.9248 L5.81055 34.3262 L5.81055 30.2783 L5.81055 10.6289 C5.81055 7.97168 7.97266 5.80957 10.6299 5.80957 C13.2881 5.80957 15.4512 7.97168 15.4512 10.6289 Z" transform="translate(0, 0.441406)"/>
   <path style="fill:#bfbebc; fill-rule:nonzero;stroke:none;" d="M30.8994 0.0039 L30.8994 16.7773 C30.8994 19.4355 28.7383 21.5967 26.0801 21.5967 C23.4218 21.5967 21.2597 19.4355 21.2597 16.7773 L21.2597 6.4043 L15.4472 0 L15.4472 16.7773 C15.4472 19.4355 13.2851 21.5967 10.6279 21.5967 C9.1006 21.5967 7.7383 20.8828 6.8554 19.7685 L0 12.2158 L0 16.7773 C0 22.6377 4.7666 27.4072 10.6279 27.4072 C13.6709 27.4072 16.414 26.122 18.3535 24.0664 C20.2929 26.122 23.0371 27.4072 26.0801 27.4072 C31.9404 27.4072 36.709 22.6377 36.709 16.7773 L36.709 6.4062 L30.8994 0.0039 Z" transform="translate(15.4512, 10.5928)"/>
   <path style="fill:#00527d; fill-rule:nonzero;stroke:none;" d="M0 7.3965 L6.7139 7.3965 L0 0 L0 7.3965 Z" transform="translate(8.7373, 15.4121)"/>
   <path style="fill:#747570; fill-rule:nonzero;stroke:none;" d="M9.2236 10.2178 L9.2236 3.2305 C8.3662 2.3477 7.1231 1.8232 5.7188 1.8232 C3.4238 1.8232 2.0694 4.2256 2.0694 7.1797 C2.0694 10.1357 3.4238 12.5654 5.7188 12.5654 C7.1514 12.5654 8.4776 11.9307 9.2236 10.2178 Z M9.0576 1.4082 L9.2236 1.3535 L9.2236 0.2754 L11.294 0.2754 L11.294 14.084 L9.2236 14.084 L9.2236 12.5654 L9.0576 12.5107 C8.2852 13.5869 6.9326 14.3613 5.2188 14.3613 C2.0166 14.3613 0 11.1846 0 7.1797 C0 3.1758 2.0986 0 5.4668 0 C7.1514 0 8.2852 0.5801 9.0576 1.4082 Z" transform="translate(62.8994, 16.9873)"/>
   <path style="fill:#747570; fill-rule:nonzero;stroke:none;" d="M6.0498 11.1025 L6.0498 11.0195 L6.2129 11.0195 L6.1865 11.1025 L9.916 0 L12.2363 0 L7.1543 13.8086 L5.0546 13.8086 L0 0 L2.292 0 L6.0498 11.1025 Z" transform="translate(80.71, 17.2627)"/>
   <path style="fill:#747570; fill-rule:nonzero;stroke:none;" d="M6.2425 12.5654 C8.8655 12.5654 10.4665 10.1631 10.4665 7.1797 C10.4665 4.2539 8.8655 1.8232 6.2425 1.8232 C3.6185 1.8232 2.0715 4.2539 2.0715 7.1797 C2.0715 10.1631 3.6185 12.5654 6.2425 12.5654 Z M6.2425 0 C10.0255 0 12.5385 3.1758 12.5385 7.1797 C12.5385 11.1846 10.0255 14.3613 6.2425 14.3613 C2.4575 14.3613 0 11.1846 0 7.1797 C0 3.1758 2.4575 0 6.2425 0 Z" transform="translate(98.3555, 16.9873)"/>
   <path style="fill:#747570; fill-rule:nonzero;stroke:none;" d="M0.221 5.7168 L2.293 5.7168 L2.293 19.5254 L0.221 19.5254 L0.221 5.7168 Z M1.243 0 C1.962 0 2.485 0.5801 2.485 1.3252 C2.485 2.0166 1.962 2.5967 1.243 2.5967 C0.553 2.5967 0 2.0166 0 1.3252 C0 0.5801 0.553 0 1.243 0 Z" transform="translate(117.961, 11.5459)"/>
   <path style="fill:#747570; fill-rule:nonzero;stroke:none;" d="M9.002 16.7637 L9.002 8.8379 C8.148 8.2569 7.015 7.8994 5.718 7.8994 C3.425 7.8994 2.072 10.3018 2.072 13.2559 C2.072 16.2119 3.425 18.6416 5.718 18.6416 C7.015 18.6416 8.23 18.1172 9.002 16.7637 Z M8.866 7.125 L9.002 7.043 L9.002 0 L11.075 0 L11.075 20.1602 L9.002 20.1602 L9.002 18.918 L8.837 18.8633 C8.093 19.7735 6.795 20.4375 5.219 20.4375 C2.016 20.4375 0 17.2608 0 13.2559 C0 9.252 2.099 6.0762 5.468 6.0762 C7.015 6.0762 8.093 6.4903 8.866 7.125 Z" transform="translate(127.819, 10.9111)"/>
   <path style="fill:#bfbebc; fill-rule:nonzero;stroke:none;" d="M13.337 10.7988 L13.31 10.5781 L13.476 10.5781 L13.447 10.7988 L16.045 0 L18.28 0 L14.527 13.8086 L12.316 13.8086 L9.195 3.7568 L9.222 3.9502 L9.057 3.9502 L9.085 3.7568 L5.964 13.8086 L3.729 13.8086 L0 0 L2.235 0 L4.833 10.7988 L4.833 10.6885 L4.999 10.6885 L4.971 10.7988 L8.174 0 L10.079 0 L13.337 10.7988 Z" transform="translate(146.583, 17.2627)"/>
   <path style="fill:#bfbebc; fill-rule:nonzero;stroke:none;" d="M6.242 12.5654 C8.865 12.5654 10.468 10.1631 10.468 7.1797 C10.468 4.2539 8.865 1.8232 6.242 1.8232 C3.618 1.8232 2.072 4.2539 2.072 7.1797 C2.072 10.1631 3.618 12.5654 6.242 12.5654 Z M6.242 0 C10.027 0 12.539 3.1758 12.539 7.1797 C12.539 11.1846 10.027 14.3613 6.242 14.3613 C2.459 14.3613 0 11.1846 0 7.1797 C0 3.1758 2.459 0 6.242 0 Z" transform="translate(169.97, 16.9873)"/>
   <path style="fill:#bfbebc; fill-rule:nonzero;stroke:none;" d="M0 0.2754 L2.073 0.2754 L2.073 1.7119 L2.237 1.7676 C3.039 0.7734 4.309 0 5.799 0 L6.13 0 L6.13 1.7676 L5.579 1.7676 C4.143 1.7676 2.928 2.5684 2.073 3.8106 L2.073 14.1123 L0 14.1123 L0 0.2754 Z" transform="translate(189.687, 16.9873)"/>
   <path style="fill:#bfbebc; fill-rule:nonzero;stroke:none;" d="M3.312 13.7256 L2.069 15.1621 L2.069 20.1602 L0 20.1602 L0 0 L2.069 0 L2.069 12.4004 L2.235 12.4561 L7.151 6.3516 L9.693 6.3516 L9.749 6.4903 L4.695 12.2071 L10.854 20.1602 L8.145 20.1602 L3.312 13.7256 Z" transform="translate(202.584, 10.9111)"/>
  </g>
 </g>
</svg>
